<svg width="63" height="96" viewBox="0 0 63 96" fill="none" xmlns="http://www.w3.org/2000/svg">
<rect x="0.999756" y="0.5" width="61.0004" height="95.0008" rx="4.5" stroke="#9747FF" stroke-dasharray="10 5"/>
<path d="M32.7206 17.4055L32.7203 17.4058L31.8739 18.3573L31.5003 18.7773L31.1267 18.3573L30.2802 17.4058L30.2797 17.4051C28.2825 15.1526 25.0974 14.8304 22.9764 16.802C20.4822 19.1245 20.3448 23.3236 22.5846 25.8495L30.8987 35.2148C30.8987 35.2149 30.8988 35.2149 30.8988 35.2149C31.237 35.5955 31.7593 35.5955 32.0975 35.2149C32.0975 35.2149 32.0975 35.2149 32.0976 35.2148L40.4119 25.8493L40.412 25.8492C42.6556 23.3234 42.5183 19.1246 40.0243 16.8021L32.7206 17.4055ZM32.7206 17.4055C34.7223 15.1523 37.9032 14.8305 40.024 16.8019L32.7206 17.4055Z" stroke="#101010"/>
<path d="M40.3647 61.4363C38.01 59.2472 34.5081 59.641 32.3468 62.0738L31.5003 63.0254L30.6538 62.0738C28.4968 59.641 24.9905 59.2472 22.6358 61.4363C19.9374 63.9488 19.7956 68.4582 22.2104 71.1816L30.5249 80.5472C31.062 81.1519 31.9343 81.1519 32.4714 80.5472L40.7858 71.1816C43.205 68.4582 43.0632 63.9488 40.3647 61.4363Z" fill="url(#paint0_linear_25368_709)"/>
<defs>
<linearGradient id="paint0_linear_25368_709" x1="31.5" y1="54.5403" x2="23.9342" y2="87.9927" gradientUnits="userSpaceOnUse">
<stop stop-color="#9356DC"/>
<stop offset="1" stop-color="#FF79DA"/>
</linearGradient>
</defs>
</svg>
